<?xml version="1.0" encoding="UTF-8" standalone="no"?>
<!DOCTYPE svg PUBLIC "-//W3C//DTD SVG 1.1//EN" "http://www.w3.org/Graphics/SVG/1.1/DTD/svg11.dtd">
<svg width="100%" height="100%" viewBox="0 0 2481 3508" version="1.1" xmlns="http://www.w3.org/2000/svg" xmlns:xlink="http://www.w3.org/1999/xlink" xml:space="preserve" xmlns:serif="http://www.serif.com/" style="fill-rule:evenodd;clip-rule:evenodd;stroke-linejoin:round;stroke-miterlimit:2;">
    <g id="Layer-1" serif:id="Layer 1" transform="matrix(4.16667,0,0,4.16667,0,0)">
        <g transform="matrix(1,0,0,1,297.532,687.168)">
            <path d="M0,-520.638C344.262,-520.613 344.179,0.025 -0.006,0C-344.264,-0.025 -344.179,-520.663 0,-520.638" style="fill:rgb(208,2,27);"/>
        </g>
        <g transform="matrix(1,0,0,1,178.992,244.941)">
            <path d="M0,20.364C-3.236,14.387 -6.482,10.998 0.158,5.549C23.436,-8.664 21.201,47.294 0,20.364M82.065,-30.414C96.626,-30.597 104.985,8.289 92.09,15.645C71.35,22.386 62.764,-25.565 82.065,-30.414M65.371,-31.473C54.396,-13.843 63.514,26.737 88.228,26.913C132.357,24.851 101.228,-68.936 65.371,-31.473M253.978,15.281C263.441,26.35 238.926,57.67 225.018,52.474C206.561,40.86 237.894,3.561 253.978,15.281M244.102,1.781C223.533,4.641 198.201,37.627 213.891,56.723C243.73,89.3 295.837,5.335 244.102,1.781M-17.847,5.426C-26.718,10.669 23.665,79.114 25.316,55.893C6.906,19.797 35.947,51.623 47.664,43.484C63,29.128 31.714,35.2 30.322,23.531C31.516,-4.181 -0.055,-17.764 -17.847,5.426" style="fill:white;"/>
        </g>
        <g transform="matrix(1,0,0,1,148.242,628.524)">
            <path d="M0,-133.739C12.633,-121.561 -12.163,-110.844 -21.013,-106.902C-58.792,-106.815 -16.671,-139.643 0,-133.739M58.147,-81.15C37.89,-63.747 5.295,-20.177 -12.343,-63.744C-19.755,-78.302 20.107,-113.741 30.577,-111.117C36.641,-93.122 -16.538,-80.309 1.868,-58.499C23.658,-40.652 43.907,-105.982 58.147,-81.15M41.444,-15.437C19.886,-21.688 55.905,-48.68 59.41,-62.145C68.133,-84.15 80.901,-75.491 74.622,-55.362C72.675,-50.719 76.606,-46.065 81.409,-48.101C124.304,-87.76 90.982,-19.198 86.93,0.314C86.163,6.648 81.557,5.583 76.857,3.308C71.909,-1.369 85.891,-30.648 69.295,-16.6C65.297,-11.161 64.734,-10.644 58.438,-13.436C53.523,-15.615 62.417,-23.922 56.687,-28.225C49.195,-32.018 45.606,-19.523 41.444,-15.437M129.613,-43.333C144.035,-40.775 136.99,-16.617 123.868,-19.258C114.542,-22.476 118.649,-47.255 129.613,-43.333M105.275,-16.665C97.383,7.229 99.777,26.782 116.919,-4.845C124.53,-7.865 135.329,-5.952 141.121,-12.839C158.859,-33.912 140.444,-59.297 115.315,-55.818C107.271,-45.29 109.215,-29.185 105.275,-16.665M190.261,9.838C189.78,-12.851 160.708,20.852 165.844,-30.167C163.365,-37.639 170.795,-57.477 158.521,-55.294C147.806,-40.95 159.705,-11.906 156.855,7.18C158.969,17.591 181.386,10.302 190.261,9.838M186.446,-51.527C189.216,-85.451 220.96,4.217 211.028,5.522C191.657,4.666 195.042,-35.888 186.446,-51.527M236.071,-78.357C257.565,-29.817 230.207,-58.885 207.681,-66.527C198.989,-60.941 227.528,-10.324 232.709,-3.272C252.533,-6.086 218.096,-31.101 234.982,-37.292C245.755,-35.364 256.964,-16.63 269.095,-19.574C270.576,-34.108 254.483,-53.526 250.434,-69.671C248.613,-78.234 244.857,-85.331 236.071,-78.357M289.225,-102.536C254.487,-94.451 264.594,-72.789 291.273,-57.882C301.206,-55.271 308.329,-69.609 299.349,-75.705C294.039,-81.114 288.951,-66.468 284.476,-75.129C279.228,-81.442 289.922,-85.001 293.376,-89.024C301.551,-95.015 306.088,-79.768 311.63,-75.582C325.214,-29.182 257.499,-50.314 255.077,-83.744C252.029,-100.554 277.337,-118.375 289.225,-102.536M314.022,-141.634C315.456,-160.521 291.3,-145.614 287.787,-137.066C277.211,-111.014 307.755,-100.763 323.597,-119.689C340.31,-127.292 344.415,-104.756 327.851,-101.497C318.424,-99.961 325.379,-86.409 332.914,-90.981C369.073,-101.89 342.092,-148.496 314.423,-124.635C291.123,-107.124 290.074,-142.827 314.022,-141.634M4.592,-151.748C-3.356,-150.663 -57.47,-122.793 -53.583,-115.354C-36.951,-65.713 42.647,-115.316 4.592,-151.748" style="fill:white;"/>
        </g>
        <g transform="matrix(1,0,0,1,97.6634,415.134)">
            <path d="M0,32.523C5.445,30.507 18.315,33.536 19.522,27.353C17.414,24.544 -8.15,28.949 0,32.523M-3.364,11.761C25.681,11.787 -30.137,26.384 18.139,23.137C22.631,16.689 -2.057,22.37 14.725,13.418C29.401,7.045 -6.883,5.964 -3.364,11.761M-0.385,-2.281C1.942,-4.187 3.485,-8.212 -0.95,-6.84C-12.003,3.238 9.559,12.03 16.449,3.525C20.958,0.443 16.881,-9.878 12.303,-4.784C23.596,3.549 -1.876,7.942 -0.385,-2.281M18.263,-22.247C13.461,-22.438 18.511,-11.644 12.368,-13.628C8.155,-14.083 11.79,-19.55 9.228,-20.645C4.933,-22.054 8.352,-13.569 3.748,-14.332C-2.092,-14.782 4.208,-23.361 -0.315,-23.727C-5.139,-17.703 -3.592,-8.897 6.945,-10.514C18.349,-6.328 23.127,-13.755 18.263,-22.247M5.132,34.933C-5.737,28.494 0.572,56.25 9.875,44.039C10.264,36.763 20.81,33.136 16.525,42.727C14.941,44.184 16.786,45.786 18.383,45.831C25.704,40.858 19.272,28.36 11.304,34.661C7.09,46.02 -2.007,45.231 5.132,34.933" style="fill:white;"/>
        </g>
        <g transform="matrix(1,0,0,1,478.56,435.193)">
            <path d="M0,-91.204C0.105,-93.833 -6.033,-92.299 -6.756,-90.872C-7.589,-85.947 -1.073,-88.77 0,-91.204M-16.944,-93.49C15.844,-102.185 11.957,-87.953 -11.869,-80.726C-13.621,-82.97 -9.763,-83.583 -9.782,-85.674C-11.296,-94.061 -16.443,-87.254 -16.944,-93.49M7.873,-77.52C2.947,-80.49 -12.609,-72.793 -0.575,-70.348C2.501,-71.026 11.099,-72.813 7.873,-77.52M10.514,-82.953C17.724,-72.201 4.087,-64.421 -5.589,-66.926C-18.902,-77.915 2.116,-81.337 10.514,-82.953M-1.314,-50.987C3.253,-52.481 -5.242,-60.839 1.207,-61.12C5.314,-62.163 3.815,-55.773 6.596,-55.638C11.114,-55.815 4.95,-62.576 9.532,-63.466C15.162,-65.081 12.249,-54.842 16.616,-56.077C19.036,-63.407 14.518,-71.118 5.204,-65.93C-6.945,-65.876 -8.832,-57.25 -1.314,-50.987M17.92,-47.474C26.235,-44.326 0.975,-38.608 -1.302,-41.289C-0.429,-47.529 12.588,-45.178 17.92,-47.474M22.427,-28.045C6.399,-26.437 16.621,-32.123 21.834,-38.026C17.38,-41.417 5.094,-37.859 -0.261,-37.117C-1.52,-30.726 9.84,-38.625 9.938,-32.775C8.193,-29.676 1.241,-28.24 0.847,-24.201C4.504,-23.675 24.008,-22.059 22.427,-28.045M22.541,-0.945C24.796,-7.641 13.192,-2.989 9.417,-4.006C-9.458,-13.045 20.588,-10.538 22.272,-14.173C-2.633,-24.235 -8.961,5.662 22.541,-0.945M15.395,13.47C23.451,3.846 14.442,2.273 9.226,13.181C0.722,18.725 -4.558,5.69 3.195,1.408C4.794,1.61 6.459,3.352 4.762,4.671C-0.376,13.838 10.449,11.169 11.502,3.966C21.879,-7.338 25.635,20.873 15.395,13.47M11.917,26.988C9.671,28.413 2.685,27.131 6.119,23.504C7.511,22.718 13.468,24.864 11.917,26.988M-0.888,15.658C-3.944,21.089 4.119,18.356 0.711,26.138C-0.431,27.882 -3.99,26.251 -3.772,29.085C20.125,36.352 31.121,26.653 -0.888,15.658M-25.883,-109.817C-24.013,-110.064 -20.616,-112.599 -19.423,-110.149C-20.475,-107.421 -24.27,-103.52 -18.428,-104.661C-9.485,-105.192 -27.888,-96.025 -17.17,-96.821C-9.695,-104.434 9.363,-108.75 -10.514,-112.006C7.222,-127.556 -31.539,-114.647 -25.883,-109.817" style="fill:white;"/>
        </g>
        <g transform="matrix(1,0,0,1,147.734,346.546)">
            <path d="M0,-40.38C-2.529,-38.546 -4.827,-28.562 -8.165,-31.397C-2.697,-42.303 -18.593,-50.766 -11.865,-35.811C-27.908,-36.516 -4.981,-61.282 -4.442,-38.547C-3.236,-40.322 -2.287,-42.995 -0.856,-43.521C0.946,-42.98 1.383,-41.811 0,-40.38M-9.579,-25.605C-7.608,-27.444 -10.722,-30.247 -11.904,-27.336C-14.872,-19.198 -13.996,-30.307 -18.723,-32.215C-27.928,-36.278 -29.321,-15.197 -20.951,-19.899C-29.423,-32.383 -12.998,-29.112 -16.915,-17.658C-15.8,-9.89 -11.178,-23.641 -9.579,-25.605M-28.165,-4.004C-21.991,-1.593 -18.92,-9.951 -25.018,-12.335C-31.242,-14.259 -34.815,-5.83 -28.165,-4.004M-19.41,-5.245C-22.406,3.927 -38.182,-2.015 -34.383,-10.688C-30.817,-19.881 -15.5,-14.56 -19.41,-5.245M-24.369,6.314C-25.99,8.455 -26.197,20.902 -29.853,16.642C-27.568,4.546 -45.334,2.454 -34.403,14.103C-49.457,18.386 -36.323,-12.53 -28.093,9.355C-28.257,5.054 -23.471,0.4 -24.369,6.314" style="fill:white;"/>
        </g>
        <g transform="matrix(1,0,0,1,414.017,371.972)">
            <path d="M0,9.299C-4.685,9.474 -16.524,6.839 -19.839,3.048C-20.015,3.033 -6.377,4.077 -2.44,4.488C-0.42,4.699 4.667,4.376 9.697,4.077C14.728,3.778 16.855,3.709 13.908,4.571C9.61,5.828 10.404,7.85 0,9.299M-20.44,-11.035C-29.853,-11.034 -37.945,-15.819 -34.042,-14.998C-21.02,-12.259 -10.921,-21.271 -11.169,-20.57C-14.468,-11.228 -16.064,-12.521 -20.44,-11.035M-139.972,36.167C-150.344,29.265 -158.107,15.324 -160.888,2.478C-142.823,37.092 -91.472,47.981 -62.468,22.956C-56.981,18.222 -51.195,13.815 -50.501,12.774C-47.385,8.094 -77.876,77.49 -139.972,36.167M-221.443,-5.73C-225.328,-3.604 -229.96,-1.044 -229.96,-1.044C-214.817,-6.348 -198.281,0.837 -179.495,-1.175C-181.098,-2.368 -186.008,-11.25 -209.721,-9.282C-213.832,-8.94 -217.824,-7.71 -221.443,-5.73M-171.76,-31.495C-177.269,-30.746 -182.898,-31.755 -187.812,-34.355C-189.714,-35.362 -190.703,-36.146 -188.555,-35.943C-178.669,-35.01 -159.304,-36.648 -158.577,-35.279C-161.706,-33.516 -166.906,-32.155 -171.76,-31.495M-136.39,-21.735C-118.25,-20.691 -124.949,1.417 -139.483,-0.869C-152.582,-2.929 -148.548,-22.434 -136.39,-21.735M-90.54,-53.297C-83.615,-53.255 -73.605,-60.496 -66.403,-59.889C-72.276,-54.432 -85.616,-45.705 -90.54,-53.297M-48.266,-34.484C-45.149,-35.014 -44.639,-34.506 -41.837,-35.621C-40.422,-36.184 -35.046,-38.294 -34.402,-39.561C-33.041,-42.239 -32.049,-35.556 -37.697,-32.503C-39.267,-31.654 -40.862,-31.2 -43.053,-30.633C-44.086,-30.365 -45.154,-30.205 -46.221,-30.212C-53.232,-30.255 -58.904,-33.673 -56.924,-33.787C-52.561,-34.038 -51.634,-33.911 -48.266,-34.484M16.468,2.952C-23.546,-26.247 -46.945,-68.191 -107.504,-66.762C-126.173,-65.259 -144.581,-58.849 -141.513,-59.834C-134.966,-61.936 -129.408,-54.19 -114.005,-52.088C-128.014,-48.314 -135.291,-50.401 -141.513,-59.834C-170.901,-50.907 -214.528,-22.564 -229.961,-1.045C-168.488,66.374 -179.246,39.223 -100.056,70.826C-86.491,73.993 -65.951,67.21 -56.596,55.637C-47.039,46.345 -36.105,54.884 -27.172,44.378C-23.267,37.766 11.388,10.452 16.468,2.952" style="fill:white;"/>
        </g>
        <g transform="matrix(1,0,0,1,170.642,437.26)">
            <path d="M0,-49.488C11.224,-78.347 27.779,-34.876 38.225,-24.649C56.439,-11.297 59.881,-17.16 41.037,0.136C35.009,5.668 29.052,20.41 29.972,28.859C26.207,26.62 19.982,26.062 14.697,20.86C9.805,16.045 8.257,13.099 2.086,4.897C-8.059,-8.588 -8.174,-35.286 0,-49.488" style="fill:white;"/>
        </g>
        <g transform="matrix(1,0,0,1,244.387,433.291)">
            <path d="M0,84.702C-25.183,78.344 -42.674,50.693 -37.085,29.123C-30.395,3.303 -13.422,-10.982 14.712,0.506C13.152,17.153 21.719,33.384 35.122,43.328C12.49,49.131 5.576,65.235 18.193,81.42C29.312,95.684 4.294,85.216 0,84.702" style="fill:white;"/>
        </g>
        <g transform="matrix(1,0,0,1,278.559,429.179)">
            <path d="M0,38.349C-3.245,35.355 -8.176,28.698 -8.666,24.131C-17.101,-16.906 27.813,31.97 49.05,26.784C62.293,27.018 74.669,14.528 81.855,5.53C108.496,-7.936 101.733,24.331 87.528,36.562C64.632,55.255 26.384,53.067 0,38.349" style="fill:white;"/>
        </g>
        <g transform="matrix(1,0,0,1,281.465,472.64)">
            <path d="M0,49.425C-34.446,39.572 -4.187,-11.219 21.084,15.809C33.972,20.633 48.018,17.287 60.525,12.814C65.204,11.14 70.423,12.59 73.555,16.448C77.745,21.61 82.762,27.738 85.518,33.661C87.844,38.659 85.033,44.532 79.668,45.804C54.879,51.685 22.349,60.644 0,49.425" style="fill:white;"/>
        </g>
        <g transform="matrix(1,0,0,1,361.027,417.055)">
            <path d="M0,63.915C16.069,55.616 25.353,32.638 27.257,16.402C34.428,-22.592 61.952,2.4 55.575,30.204C51.15,50.716 38.229,77.6 17.217,85.386C14.193,86.507 10.791,85.467 8.865,82.88C5.937,78.947 1.52,73.016 -1.299,69.23C-2.63,67.443 -1.981,64.938 0,63.915" style="fill:white;"/>
        </g>
        <g transform="matrix(1,0,0,1,363.074,262.581)">
            <path d="M0,-42.222C-1.737,-38.129 -7.678,-36.964 -12.258,-36.998C-14.878,-37.016 -16.816,-39.327 -16.321,-41.812C-15.782,-44.518 -14.931,-47.703 -13.872,-50.265C-13.096,-52.145 -11.029,-53.193 -8.99,-52.732C-4.928,-51.813 -2.257,-49.197 -0.239,-45.508C0.315,-44.496 0.45,-43.281 0,-42.222M-4.347,-12.862C-3.182,-2.429 -29.094,-2.494 -28.509,-6.419C-27.518,-13.074 -28.115,-9.626 -26.076,-15.999C-25.381,-18.168 -21.694,-25.729 -19.162,-25.182C-13.188,-23.892 -5.582,-20.529 -4.347,-12.862M6.811,-35.759C17.723,-50.52 1.13,-57.535 -10.678,-59.702C-14.949,-60.486 -19.22,-58.356 -21.076,-54.558C-27.141,-42.149 -33.316,-23.925 -36.877,-10.312C-38.201,-5.25 -35.758,0.049 -30.939,2.41C1.426,18.264 14.579,-8.735 -5.088,-28.85C-8.21,-32.043 -1.255,-27.088 6.446,-35.319C6.573,-35.456 6.7,-35.609 6.811,-35.759" style="fill:white;"/>
        </g>
        <g transform="matrix(1,0,0,1,323.088,363.373)">
            <path d="M0,-2.805C2.345,-16.701 22.881,-11.962 19.141,2.248C16.074,13.896 -2.737,10.018 0,-2.805" style="fill:rgb(208,2,27);"/>
        </g>
    </g>
</svg>
